<?xml version="1.0" standalone="no"?>
<!DOCTYPE svg PUBLIC "-//W3C//DTD SVG 20010904//EN"
 "http://www.w3.org/TR/2001/REC-SVG-20010904/DTD/svg10.dtd">
<svg version="1.0" xmlns="http://www.w3.org/2000/svg"
 width="700.000000pt" height="700.000000pt" viewBox="0 0 700.000000 700.000000"
 preserveAspectRatio="xMidYMid meet">
<metadata>
Created by potrace 1.14, written by Peter Selinger 2001-2017
</metadata>
<g transform="translate(0.000000,700.000000) scale(0.100000,-0.100000)"
fill="#000000" stroke="none">
<path d="M3240 6223 c-262 -21 -627 -120 -881 -239 -320 -150 -546 -309 -799
-563 -419 -421 -665 -910 -767 -1526 -26 -158 -26 -632 0 -790 102 -614 350
-1107 767 -1526 239 -240 439 -384 735 -529 264 -130 521 -211 805 -255 140
-22 515 -31 662 -16 799 82 1506 491 1967 1137 75 106 176 273 169 280 -3 2
-17 0 -32 -6 -41 -15 -166 -12 -219 6 -61 21 -131 84 -165 148 -23 44 -26 63
-26 141 -1 77 3 98 26 147 92 198 344 293 514 193 23 -14 60 -46 82 -72 l40
-46 11 39 c80 298 96 426 96 754 0 307 -11 407 -70 650 -47 191 -105 350 -194
535 -146 301 -292 507 -531 745 -155 156 -280 259 -440 362 -353 229 -754 374
-1175 423 -119 14 -446 18 -575 8z m155 -1462 c133 -32 279 -106 363 -185 123
-117 181 -244 189 -417 3 -58 3 -127 -1 -153 l-7 -46 -330 0 -329 0 0 38 c0
136 -87 214 -256 228 -208 16 -362 -64 -380 -198 -8 -60 -1 -88 33 -123 49
-49 140 -83 363 -135 118 -27 249 -62 290 -76 267 -93 427 -244 475 -446 31
-132 11 -331 -48 -476 -115 -283 -369 -472 -742 -552 -127 -28 -455 -39 -600
-21 -395 50 -649 239 -710 529 -15 69 -20 255 -9 336 l7 46 327 0 327 0 5 -82
c5 -91 19 -128 70 -179 116 -116 410 -131 571 -30 51 33 81 74 98 134 32 119
-67 197 -330 258 -383 88 -470 116 -590 186 -231 137 -317 332 -265 604 53
281 233 507 517 650 94 48 231 95 335 115 178 35 466 33 627 -5z m1765 -186
c0 -2 -16 -100 -35 -216 -19 -117 -35 -218 -35 -226 0 -10 33 -13 160 -13 146
0 160 -2 160 -17 0 -18 -65 -409 -75 -450 -5 -22 -9 -23 -168 -25 l-162 -3
-67 -395 c-37 -217 -67 -411 -67 -431 -1 -22 7 -46 18 -60 17 -21 28 -24 93
-24 40 0 87 3 105 7 l31 7 6 -122 c4 -67 7 -176 9 -242 l2 -119 -95 -24 c-130
-33 -386 -42 -510 -18 -170 32 -294 121 -340 243 -43 114 -39 163 44 673 42
256 78 475 81 488 5 22 5 22 -118 22 l-123 0 41 243 41 242 121 3 122 3 5 27
c3 15 20 113 37 217 16 105 32 196 34 203 3 9 81 12 345 12 187 0 340 -2 340
-5z"/>
</g>
</svg>
